<svg xmlns="http://www.w3.org/2000/svg" width="90.012" height="68.57" viewBox="0 0 90.012 68.57">
  <g id="alpha_vector" data-name="alpha vector" transform="translate(-292.875 -1378.512)">
    <path id="Path_134" data-name="Path 134" d="M371.177,1902.66c7.05,0,8.3,2.552,14.057,8.033s8.953,13.89,8.953,13.89-3.2,8.158-8.953,13.471-6.8,7.782-14.057,7.782-10.187-2.469-14.978-7.782-4.184-13.471-4.184-13.471.23-8.409,5.02-13.89S364.128,1902.66,371.177,1902.66Z" transform="translate(-47 -512)" fill="none" stroke="#00c3ff" stroke-width="3"/>
    <path id="Path_133" data-name="Path 133" d="M419.172,1894.162l-16.729,21.508s-1.275-2.072-3.346-5.111a52.9,52.9,0,0,0-9.927-11.214c-5.3-4.363-13.239-7.334-19.229-7.334-3.09,0-11.287,2.922-11.287,2.922l-4.6,2.39-4.6,4.412a33.4,33.4,0,0,0-6.765,13.935c-.5,2.508-1.324,3.4-1.324,7.941a54.339,54.339,0,0,0,1.324,10.222,43.636,43.636,0,0,0,3.272,8.162,18.866,18.866,0,0,0,4.375,5.221,27.077,27.077,0,0,0,8.309,6.728,35.62,35.62,0,0,0,11.287,2.832s8.015-.626,12.611-2.832a49.925,49.925,0,0,0,9.614-6.728l8.125-10.037,8.125,15.295s2.33,3.226,5.018,4.3,2.629,1.075,5.736,0,6.691-4.3,6.691-4.3l1.912-6.453H417.261l-8.842-19.119,19.357-26.766Z" transform="translate(-47 -512)" fill="none" stroke="#00c3ff" stroke-width="3"/>
  </g>
</svg>
